<svg id="Layer_1" data-name="Layer 1" xmlns="http://www.w3.org/2000/svg" viewBox="0 0 522.34 236.74"><defs><style>.cls-1,.cls-5{fill:none;stroke:#233a6f;stroke-linecap:round;stroke-miterlimit:10;}.cls-1{stroke-width:2.5px;}.cls-2{fill:#e87138;}.cls-3{fill:#e7d238;}.cls-4{fill:#64a94a;}.cls-5{stroke-width:2px;}.cls-10,.cls-15,.cls-6{fill:#233a6f;}.cls-7{fill:#b588d8;}.cls-8{fill:#c45f99;}.cls-9{fill:#4c7ad6;}.cls-10{font-size:16.39px;font-family:BrandonGrotesque-Black, Brandon Grotesque;letter-spacing:0.11em;}.cls-11{letter-spacing:0.14em;}.cls-12{letter-spacing:0.15em;}.cls-13{letter-spacing:0.15em;}.cls-14{letter-spacing:0.15em;}.cls-15{font-size:120px;font-family:BrandonGrotesque-Light, Brandon Grotesque;letter-spacing:0.02em;}</style></defs><title>404_img</title><path class="cls-1" d="M105,224.2H91.2c-3.6,0-6.55-3.23-6.55-7.17V8.42c0-3.95,2.95-7.17,6.55-7.17H426.06c3.6,0,6.55,3.23,6.55,7.17v50"/><path class="cls-1" d="M432.62,204.79v12.85a6.57,6.57,0,0,1-6.55,6.55H197"/><line class="cls-1" x1="84.93" y1="39.87" x2="432.62" y2="39.87"/><circle class="cls-2" cx="109.73" cy="20.44" r="6.83"/><circle class="cls-3" cx="132.28" cy="20.44" r="6.83"/><circle class="cls-4" cx="154.83" cy="20.44" r="6.83"/><line class="cls-1" x1="322.24" y1="22.13" x2="419.46" y2="22.13"/><line class="cls-1" x1="291.65" y1="22.13" x2="308.04" y2="22.13"/><line class="cls-1" x1="76.24" y1="224.2" x2="13.35" y2="224.2"/><line class="cls-1" x1="444.02" y1="223.76" x2="465.92" y2="223.76"/><line class="cls-1" x1="475.85" y1="223.76" x2="521.09" y2="223.76"/><g id="Ladder"><line class="cls-1" x1="84.64" y1="71.61" x2="34.38" y2="71.61"/><polyline class="cls-1" points="84.64 90.7 13.36 90.7 13.36 76.55"/><line class="cls-1" x1="34.38" y1="90.7" x2="34.38" y2="159.17"/><line class="cls-1" x1="59.42" y1="90.7" x2="59.42" y2="146.15"/><line class="cls-1" x1="34.38" y1="104.59" x2="59.51" y2="104.59"/><line class="cls-1" x1="34.38" y1="119.61" x2="59.51" y2="119.61"/><line class="cls-1" x1="34.38" y1="134.63" x2="59.51" y2="134.63"/><line class="cls-5" x1="29.07" y1="82.06" x2="70.63" y2="82.06"/></g><g id="Barricade"><polyline class="cls-1" points="111.78 201.11 111.78 209.73 187.91 209.73 187.91 197.1 144.54 197.1"/><line class="cls-5" x1="186.13" y1="199.05" x2="176.08" y2="209.1"/><line class="cls-5" x1="173.5" y1="197.1" x2="161.5" y2="209.1"/><line class="cls-5" x1="158.92" y1="197.1" x2="146.92" y2="209.1"/><line class="cls-1" x1="135.11" y1="197.1" x2="121.18" y2="197.1"/><line class="cls-5" x1="144.34" y1="197.1" x2="132.34" y2="209.1"/><line class="cls-5" x1="129.76" y1="197.1" x2="117.76" y2="209.1"/><polyline class="cls-1" points="117.77 213.78 117.77 228.69 126.68 228.69 126.68 209.73"/><polyline class="cls-1" points="173.65 218 173.65 228.69 182.57 228.69 182.57 209.73"/><line class="cls-1" x1="111.78" y1="235.49" x2="138.34" y2="235.49"/><line class="cls-1" x1="167.5" y1="235.49" x2="178.11" y2="235.49"/><line class="cls-1" x1="184.02" y1="235.49" x2="188.24" y2="235.49"/><line class="cls-1" x1="135.11" y1="222.94" x2="163.98" y2="222.94"/></g><g id="Crane"><polyline class="cls-1" points="448.62 141.69 427.33 141.69 427.33 180.2 496.25 180.2 496.25 154.86 454.47 154.86 454.47 179.18"/><circle class="cls-6" cx="435.27" cy="172.09" r="2.19"/><line class="cls-5" x1="425.13" y1="78.81" x2="418.98" y2="68.9"/><line class="cls-1" x1="425.64" y1="68.9" x2="378.01" y2="68.9"/><line class="cls-1" x1="419.9" y1="191.18" x2="471.49" y2="191.18"/><line class="cls-1" x1="477.12" y1="191.18" x2="497.38" y2="191.18"/><polyline class="cls-1" points="460.82 140.57 418.96 85.13 433.9 73.86 494.68 154.37"/><line class="cls-5" x1="433.9" y1="73.86" x2="430.31" y2="99.59"/><line class="cls-5" x1="443.06" y1="85.99" x2="439.46" y2="111.72"/><line class="cls-5" x1="452.22" y1="98.12" x2="448.62" y2="123.86"/><line class="cls-5" x1="461.38" y1="110.25" x2="457.78" y2="135.99"/><polyline class="cls-5" points="470.54 122.39 466.94 148.12 472.03 154.86"/><line class="cls-5" x1="481.47" y1="136.87" x2="478.96" y2="154.86"/><line class="cls-1" x1="385.11" y1="68.9" x2="385.11" y2="92.65"/><line class="cls-1" x1="385.11" y1="99.3" x2="385.11" y2="105.23"/><line class="cls-1" x1="378.01" y1="111.72" x2="392.37" y2="111.72"/><rect class="cls-1" x="372.78" y="118.51" width="25.34" height="66.44"/><rect class="cls-7" x="380.52" y="166.95" width="9.21" height="9.21" rx="1.68" ry="1.68"/><rect class="cls-8" x="380.52" y="151.75" width="9.21" height="9.21" rx="1.68" ry="1.68"/></g><path class="cls-9" d="M469.4,102.1s-6.73-3.41-3.22-15.45c3.32-11.36,16.41-7.4,16.41-7.4s6.16-12.83,19.63-9.65c11.94,2.82,10,14.48,10,14.48a10,10,0,0,1,8.69,8.69c1.29,8-4.18,9.33-4.18,9.33Z"/><path class="cls-9" d="M5.23,46s-8.32-4.21-4-19.08c4.1-14,20.27-9.14,20.27-9.14S29.13,2,45.77,5.87C60.51,9.35,58.09,23.76,58.09,23.76A12.39,12.39,0,0,1,68.82,34.49C70.41,44.43,63.65,46,63.65,46Z"/><text class="cls-10" transform="translate(140.35 178.01)">P<tspan class="cls-11" x="11.45" y="0">A</tspan><tspan class="cls-12" x="24.66" y="0">GE N</tspan><tspan class="cls-13" x="71.88" y="0">O</tspan><tspan class="cls-14" x="87.2" y="0">T FOUND</tspan></text><text class="cls-15" transform="translate(115.11 150.29)">404</text></svg>