<svg height="128pt" viewBox="0 -36 512 512" width="128pt" 
  xmlns="http://www.w3.org/2000/svg">
  <path d="m28.960938 54.371094c0 16.269531 13.234374 29.507812 29.507812 29.507812s29.507812-13.238281 29.507812-29.507812c0-16.269532-13.238281-29.507813-29.507812-29.507813-16.273438 0-29.507812 13.238281-29.507812 29.507813zm38.878906 0c0 5.167968-4.203125 9.371094-9.371094 9.371094s-9.371094-4.203126-9.371094-9.371094c0-5.167969 4.203125-9.371094 9.371094-9.371094s9.371094 4.203125 9.371094 9.371094zm0 0"/>
  <path d="m91.890625 54.371094c0 16.269531 13.234375 29.507812 29.507813 29.507812 16.273437 0 29.507812-13.238281 29.507812-29.507812 0-16.269532-13.234375-29.507813-29.507812-29.507813-16.273438 0-29.507813 13.238281-29.507813 29.507813zm38.878906 0c0 5.167968-4.203125 9.371094-9.371093 9.371094-5.167969 0-9.371094-4.203126-9.371094-9.371094 0-5.167969 4.203125-9.371094 9.371094-9.371094 5.167968 0 9.371093 4.203125 9.371093 9.371094zm0 0"/>
  <path d="m154.820312 54.371094c0 16.269531 13.238282 29.507812 29.507813 29.507812 16.273437 0 29.507813-13.238281 29.507813-29.507812 0-16.269532-13.234376-29.507813-29.507813-29.507813-16.269531 0-29.507813 13.238281-29.507813 29.507813zm38.878907 0c0 5.167968-4.203125 9.371094-9.371094 9.371094s-9.371094-4.203126-9.371094-9.371094c0-5.167969 4.203125-9.371094 9.371094-9.371094s9.371094 4.203125 9.371094 9.371094zm0 0"/>
  <path d="m501.929688.0546875h-27.269532c-5.558594 0-10.066406 4.5078125-10.066406 10.0664065 0 5.5625 4.507812 10.070312 10.066406 10.070312h17.203125v70.480469h-471.726562v-70.480469h365.921875c5.5625 0 10.070312-4.507812 10.070312-10.070312 0-5.558594-4.507812-10.0664065-10.070312-10.0664065h-375.988282c-5.5625 0-10.070312 4.5078125-10.070312 10.0664065v420.335937c0 5.5625 4.507812 10.070313 10.070312 10.070313h491.859376c5.5625 0 10.070312-4.507813 10.070312-10.070313v-420.335937c0-5.558594-4.507812-10.0664065-10.070312-10.0664065zm-10.066407 420.3359375h-471.726562v-309.578125h471.726562zm0 0"/>
  <path d="m84.082031 289.960938c0 5.089843 3.390625 8.640624 8.246094 8.640624h47.136719v24.238282c0 5.398437 5.898437 7.859375 11.378906 7.859375 5.65625 0 11.378906-2.699219 11.378906-7.859375v-24.238282h8.582032c4.535156 0 8.054687-5.695312 8.054687-10.597656 0-5.195312-2.523437-10.789062-8.054687-10.789062h-8.582032v-26c0-5.800782-6.128906-7.859375-11.378906-7.859375-7.019531 0-11.378906 3.011719-11.378906 7.859375v26h-26.128906l39.582031-78.980469c.652343-1.300781 1.085937-2.40625 1.085937-3.578125 0-5.429688-6.851562-9.03125-11.378906-9.03125-4.21875 0-7.824219 2.265625-9.902344 6.226562l-47.335937 93.304688c-.828125 1.453125-1.304688 3.207031-1.304688 4.804688zm0 0"/>
  <path d="m242.628906 331.871094c29.046875 0 45.042969-15.855469 45.042969-44.648438v-56.949218c0-28.792969-15.996094-44.648438-45.042969-44.648438-28.917968 0-44.84375 15.855469-44.84375 44.648438v56.949218c0 28.792969 15.925782 44.648438 44.84375 44.648438zm-22.085937-101.597656c0-16.085938 7.429687-24.238282 22.085937-24.238282 14.578125 0 22.28125 8.378906 22.28125 24.238282v56.949218c0 15.859375-7.703125 24.238282-22.28125 24.238282-14.65625 0-22.085937-8.15625-22.085937-24.238282zm0 0"/>
  <path d="m314.0625 298.601562h47.132812v24.238282c0 5.398437 5.898438 7.859375 11.382813 7.859375 5.652344 0 11.378906-2.699219 11.378906-7.859375v-24.238282h8.582031c4.535157 0 8.050782-5.695312 8.050782-10.597656 0-5.195312-2.519532-10.789062-8.050782-10.789062h-8.582031v-26c0-5.800782-6.132812-7.859375-11.378906-7.859375-7.019531 0-11.382813 3.011719-11.382813 7.859375v26h-26.128906l39.585938-78.980469c.648437-1.300781 1.082031-2.40625 1.082031-3.578125 0-5.429688-6.847656-9.03125-11.378906-9.03125-4.21875 0-7.824219 2.265625-9.898438 6.226562l-47.339843 93.304688c-.828126 1.453125-1.304688 3.207031-1.304688 4.804688 0 5.089843 3.390625 8.640624 8.25 8.640624zm0 0"/>
  <path d="m46.078125 194.246094c5.558594 0 10.066406-4.507813 10.066406-10.070313v-37.992187h47.660157c5.5625 0 10.070312-4.507813 10.070312-10.070313 0-5.558593-4.507812-10.066406-10.070312-10.066406h-57.726563c-5.5625 0-10.070313 4.507813-10.070313 10.066406v48.0625c0 5.5625 4.507813 10.070313 10.070313 10.070313zm0 0"/>
  <path d="m46.078125 405.289062h57.726563c5.5625 0 10.070312-4.511718 10.070312-10.070312s-4.507812-10.070312-10.070312-10.070312h-47.660157v-37.992188c0-5.558594-4.507812-10.070312-10.066406-10.070312-5.5625 0-10.070313 4.511718-10.070313 10.070312v48.0625c0 5.558594 4.507813 10.070312 10.070313 10.070312zm0 0"/>
  <path d="m407.707031 146.183594h47.660157v37.992187c0 5.5625 4.507812 10.070313 10.066406 10.070313 5.5625 0 10.070312-4.507813 10.070312-10.070313v-48.0625c0-5.5625-4.507812-10.070312-10.070312-10.070312h-57.726563c-5.5625 0-10.070312 4.507812-10.070312 10.070312s4.507812 10.070313 10.070312 10.070313zm0 0"/>
  <path d="m465.433594 337.085938c-5.558594 0-10.066406 4.511718-10.066406 10.070312v37.992188h-47.660157c-5.5625 0-10.070312 4.511718-10.070312 10.070312s4.507812 10.070312 10.070312 10.070312h57.726563c5.5625 0 10.070312-4.511718 10.070312-10.070312v-48.0625c0-5.5625-4.507812-10.070312-10.070312-10.070312zm0 0"/>
  <path d="m145.640625 146.582031c.765625 0 1.539063-.089843 2.3125-.269531l.445313-.105469c5.410156-1.273437 8.769531-6.691406 7.496093-12.105469-1.273437-5.414062-6.691406-8.765624-12.105469-7.5l-.441406.105469c-5.414062 1.273438-8.769531 6.691407-7.496094 12.105469 1.085938 4.640625 5.222657 7.769531 9.789063 7.769531zm0 0"/>
  <path d="m428.335938 20.246094c.761718 0 1.539062-.085938 2.3125-.269532l.445312-.105468c5.410156-1.269532 8.769531-6.691406 7.496094-12.105469-1.273438-5.410156-6.691406-8.765625-12.105469-7.496094l-.441406.105469c-5.414063 1.269531-8.773438 6.691406-7.5 12.105469 1.089843 4.636719 5.226562 7.765625 9.792969 7.765625zm0 0"/>
</svg>